<svg width="720" height="520" viewBox="0 0 720 520" fill="none" xmlns="http://www.w3.org/2000/svg">
  <defs>
    <linearGradient id="scrub" x1="137" y1="158" x2="568" y2="449" gradientUnits="userSpaceOnUse">
      <stop stop-color="#12B7C2"/>
      <stop offset="1" stop-color="#0997A6"/>
    </linearGradient>
    <linearGradient id="darkScrub" x1="200" y1="337" x2="510" y2="476" gradientUnits="userSpaceOnUse">
      <stop stop-color="#078792"/>
      <stop offset="1" stop-color="#066D7A"/>
    </linearGradient>
    <filter id="softShadow" x="117" y="103" width="503" height="379" filterUnits="userSpaceOnUse" color-interpolation-filters="sRGB">
      <feFlood flood-opacity="0" result="BackgroundImageFix"/>
      <feColorMatrix in="SourceAlpha" type="matrix" values="0 0 0 0 0 0 0 0 0 0 0 0 0 0 0 0 0 0 127 0" result="hardAlpha"/>
      <feOffset dy="12"/>
      <feGaussianBlur stdDeviation="14"/>
      <feColorMatrix type="matrix" values="0 0 0 0 0.05 0 0 0 0 0.38 0 0 0 0 0.41 0 0 0 0.12 0"/>
      <feBlend mode="normal" in2="BackgroundImageFix" result="effect1_dropShadow_1_4"/>
      <feBlend mode="normal" in="SourceGraphic" in2="effect1_dropShadow_1_4" result="shape"/>
    </filter>
  </defs>

  <path d="M132.6 379.4C80.5 311.8 91.1 199.4 163.8 143.8c55.3-42.3 129.7-9.6 196.3-21.4 82.4-14.6 163.3-47.9 218.7 14.8 57 64.5 53.9 176.7-9.2 239.3-98.1 97.4-342.7 125.1-437 2.9Z" fill="#C8F1F1"/>
  <path d="M192 155c12.3-21.4 36.5-33.6 60.9-30.8" stroke="#B2E5E5" stroke-width="11" stroke-linecap="round"/>
  <path d="M480 127c17.6 1.5 32.3 13.9 37 30.9" stroke="#B2E5E5" stroke-width="11" stroke-linecap="round"/>
  <path d="M109 228h50" stroke="#0EA8B3" stroke-width="17" stroke-linecap="square"/>
  <path d="M134 203v50" stroke="#0EA8B3" stroke-width="17" stroke-linecap="square"/>
  <path d="M588 242h44" stroke="#A6E8E8" stroke-width="16" stroke-linecap="square"/>
  <path d="M610 220v44" stroke="#A6E8E8" stroke-width="16" stroke-linecap="square"/>
  <path d="M151 161l-29-17 39-14-10 31Z" fill="#F2C34E"/>
  <path d="M187 151l-12-33 27 8-15 25Z" fill="#F2C34E"/>
  <path d="M106 296c8.1-3.7 15.5-3.2 22.1 1.5M98 317c8.9-2 16-.1 21.3 5.6" stroke="#F59F73" stroke-width="8" stroke-linecap="round"/>
  <path d="M608 160c2.6 10.2 9.1 16.8 19.5 19.7-10.4 2.8-16.9 9.3-19.5 19.4-2.9-10.1-9.4-16.6-19.5-19.4 10.1-2.9 16.6-9.5 19.5-19.7ZM93 260c2 7.7 6.9 12.7 14.8 14.8-7.9 2.1-12.8 7-14.8 14.7-2.2-7.7-7.1-12.6-14.8-14.7 7.7-2.1 12.6-7.1 14.8-14.8Z" fill="#FFFFFF"/>

  <g filter="url(#softShadow)">
    <path d="M190.1 254.4c-10.9 44.4-17.8 85.7-19.4 149.6h102.4c-3.3-63.5-10.2-106.1-20.9-149.6h-62.1Z" fill="url(#scrub)"/>
    <path d="M181.6 321.1h82.1l5.3 39.2h-92.6l5.2-39.2Z" fill="#086E78" opacity=".54"/>
    <path d="M184.5 254.4c-25.6 10.1-47.1 28.1-62.1 51.7l21.1 22.2c12.2-18.2 27.8-31 48.2-37.6l-7.2-36.3Z" fill="url(#scrub)"/>
    <path d="M128.5 307.5c-18.6 14.6-34.2 13-46.7-4.7-8.1-11.6-5.2-23.4 1.6-29.3 5-4.4 13.3-2.5 16.7 3.3l8.2 13.9c5.1 3 10.7 3.3 17 .7l3.2 16.1Z" fill="#F49A74"/>
    <path d="M189.4 386.4l-6.1 93.6h34.4l12.8-93.6h-41.1Z" fill="#0796A4"/>
    <path d="M232.6 386.4l11.8 93.6h34.8l-5.8-93.6h-40.8Z" fill="#078895"/>
    <path d="M177 472h108" stroke="#056773" stroke-width="18" stroke-linecap="round"/>
    <path d="M174.2 180.5c2.1-30.6 20.1-48.1 53.8-52.5 24.6-3.2 46.5 16.6 45.5 41.4l-2.1 51.4h-93.7l-3.5-40.3Z" fill="#660A3A"/>
    <path d="M197.8 188.6c2.4-23.6 18.1-36.2 47.2-37.8 16.6-.9 30.8 12.6 30.8 29.2v31.1c0 23.6-19.1 42.7-42.7 42.7h-1.6c-21.5 0-39.1-17.1-39.8-38.6l6.1-26.6Z" fill="#F49A74"/>
    <path d="M194.9 195.4c22.8-3.3 41.1-14.5 54.7-33.5 6.8 18.1 17.5 29.4 32.2 33.8l-3.2-29.2c-6.3-19-22.2-30.4-47.6-34.2-30.1.8-47.2 16.7-51.2 47.8l15.1 15.3Z" fill="#660A3A"/>
    <rect x="207.6" y="196.4" width="66" height="30.8" rx="8" fill="#FFFFFF"/>
    <path d="M211.5 204.6c18.2 8 36.9 8.1 56.3.4M213.7 218.2c16.1 5.2 32.5 5.4 49.2.5" stroke="#D7E5E9" stroke-width="3" stroke-linecap="round"/>
    <path d="M199.7 230c-4.7-7.6-6.2-15.3-4.6-23l78.5 6.2c-.2 11.6-3.9 21.4-11.1 29.5-19.8 9.6-40.8 5.4-62.8-12.7Z" fill="#F2F6F7" opacity=".72"/>
    <path d="M355.7 221.2c-10.8 50-17.7 100.6-20.5 190.4h138.2c-2.6-89.9-9.6-140.4-20.7-190.4h-97Z" fill="url(#scrub)"/>
    <path d="M341.3 325.2h145.4l5.5 43.7H335.8l5.5-43.7Z" fill="#075F68" opacity=".56"/>
    <path d="M356.2 219.7c-34.7 13.1-63.4 37.4-83 70l30.8 31.2c14.3-22.2 33.4-38.8 57.3-49.8l-5.1-51.4Z" fill="url(#scrub)"/>
    <path d="M454.1 220.1c35.5 12.6 65.4 36.5 85.6 68.5L510 320.5c-16.3-23.8-36-40.7-59.3-50.5l3.4-49.9Z" fill="url(#scrub)"/>
    <path d="M290.5 302.7c-16.7 22.5-35.9 27.5-57.7 15-14.2-8.1-16.7-21.8-10.8-30.3 4.4-6.4 14.2-6.8 19.8-.6l13.5 14.9c8.2 1.1 15.2-1.6 20.9-8.1l14.3 9.1Z" fill="#F49A74"/>
    <path d="M520.3 306.9c18.4 21.1 38 24.2 58.5 9.6 13.4-9.5 14.5-23.5 7.8-31.3-5.1-5.9-14.9-5.3-19.9 1.4l-11.9 16.2c-8 1.9-15.3-.1-21.7-5.9l-12.8 10Z" fill="#B9795E"/>
    <path d="M363.7 397.5 356.4 480h39.8l14.9-82.5h-47.4Z" fill="#0897A5"/>
    <path d="M437.2 397.5 451 480h39.9l-6.9-82.5h-46.8Z" fill="#078894"/>
    <path d="M349 472h151" stroke="#056773" stroke-width="18" stroke-linecap="round"/>
    <path d="M352.8 124.4c10.1-26.1 33.4-39 69.7-38.9 37.2.2 60 20.8 68.5 61.9l-12.4 46.3H360.9l-8.1-69.3Z" fill="#353D40"/>
    <path d="M371.9 145.9c1.6-31.6 18.8-47.3 51.6-47.2 27.7.1 50.1 22.6 50.1 50.3v34.6c0 31.4-25.4 56.8-56.8 56.8h-3.8c-27.5 0-50.3-21.2-52.4-48.6l11.3-45.9Z" fill="#F59D76"/>
    <path d="M358.5 170.2c26.9-6.2 48.6-21.2 65.2-45 7.8 20.6 24.1 34.8 48.9 42.7l8.3-27.8c-9.7-31.5-31.3-47.2-64.8-47.2-34.8 0-55.8 17.6-62.8 52.7l5.2 24.6Z" fill="#353D40"/>
    <path d="M358 173.7c-8.7 1.4-13.1 7.1-13.1 17.2s6.1 16.8 18.2 20" fill="#F59D76"/>
    <path d="M474.5 172.1c8.4 1.4 12.7 7.1 12.7 17.1s-5.9 16.6-17.8 19.7" fill="#F59D76"/>
    <path d="M386.2 170c6.3-5.4 13.1-6.3 20.3-2.7M439 167.6c7.4-3.8 14.2-3.1 20.3 2.3" stroke="#22282B" stroke-width="5" stroke-linecap="round"/>
    <path d="M421.5 188.7c-3.8 7.8-3.1 13.8 2.2 18" stroke="#C96F58" stroke-width="4" stroke-linecap="round"/>
    <path d="M404.9 220.4c12.8 8.7 26.5 8.9 41.1.6" stroke="#B75048" stroke-width="5" stroke-linecap="round"/>
    <path d="M350.2 224.8c-11.9 7.4-19.4 19.5-22.4 36.4 24.9 22.3 53 34.6 84.3 36.8 34.2 2.4 63.4-9.9 87.6-36.8-4.7-18.3-13.5-30.9-26.4-37.9l-44 48.8-79.1-47.3Z" fill="#0A8792"/>
    <path d="M352.7 222.3 409 271.5l-20.4 17.9-41.1-51.9 5.2-15.2Z" fill="#20C9D1"/>
    <path d="M471.7 221.6 428.9 272l21.1 17.1 31.6-51.2-9.9-16.3Z" fill="#20C9D1"/>
    <path d="M491 237.9c34.3-5.1 50.8 10.1 49.5 45.6" stroke="#263234" stroke-width="6" stroke-linecap="round"/>
    <path d="M497.4 323.6c20.3 6.9 38.6-.6 54.8-22.6" stroke="#263234" stroke-width="6" stroke-linecap="round"/>
    <circle cx="554.3" cy="296.7" r="13.2" fill="#FFFFFF" stroke="#263234" stroke-width="6"/>
    <path d="M355 237.8c-37-5.4-54 9.8-51 45.7" stroke="#263234" stroke-width="6" stroke-linecap="round"/>
    <path d="M349.1 324.4c-20.6 6.6-38.8-1.1-54.6-23.2" stroke="#263234" stroke-width="6" stroke-linecap="round"/>
    <circle cx="292.1" cy="296.4" r="13.2" fill="#FFFFFF" stroke="#263234" stroke-width="6"/>
    <path d="M555.6 272c18.7 54.7 28.2 104.1 28.3 148.2H497c1.8-49 8.3-96.2 19.4-141.7l39.2-6.5Z" fill="url(#scrub)"/>
    <path d="M506.6 343.2h76.5l4.6 37.2h-85.9l4.8-37.2Z" fill="#075F68" opacity=".55"/>
    <path d="M523.5 270.1c-18.1 5.2-32.9 16.8-44.4 34.8l21.5 24.7c11.8-17.8 26.4-27.8 44-30.1l-21.1-29.4Z" fill="url(#scrub)"/>
    <path d="M580 281.9c20 8.6 35.1 23.6 45.4 44.8l-23.7 17.7c-9-15.8-20.4-25.9-34.3-30.4l12.6-32.1Z" fill="url(#scrub)"/>
    <path d="M500.9 407.5 493.8 480h31.6l12.5-72.5h-37Z" fill="#088F9C"/>
    <path d="M548.8 407.5 560.2 480h31.6l-6.3-72.5h-36.7Z" fill="#078390"/>
    <path d="M488 472h109" stroke="#056773" stroke-width="18" stroke-linecap="round"/>
    <path d="M511.7 202.9c1.7-32.7 19.1-49.7 52.1-50.9 25.3-.9 47.4 20.8 46.8 46.1l-1.1 52.8h-92.9l-4.9-48Z" fill="#F5C460"/>
    <path d="M528.5 201.4c1.6-24.1 16.2-37 43.8-38.5 18-.9 33.1 13.5 33.1 31.5v28c0 25.2-20.4 45.6-45.6 45.6h-.6c-22 0-40.8-15.8-44.7-37.4l14-29.2Z" fill="#B9795E"/>
    <path d="M523.2 207c23.2-3.8 41-16.7 53.6-38.7 6 17.5 17.1 29.8 33.4 36.9l-1.2-17.4c-5.7-23.7-22.7-37.5-50.9-41.2-27.7 2.6-43.4 18.3-47.2 47l12.3 13.4Z" fill="#F5C460"/>
    <circle cx="548.4" cy="212" r="14.3" stroke="#FFFFFF" stroke-width="6"/>
    <circle cx="588" cy="212" r="14.3" stroke="#FFFFFF" stroke-width="6"/>
    <path d="M562.7 212h10.9" stroke="#FFFFFF" stroke-width="5" stroke-linecap="round"/>
    <path d="M565.8 242.6c10.2 5.9 20.9 5.5 32.1-1.2" stroke="#8C4D43" stroke-width="4" stroke-linecap="round"/>
    <rect x="604.7" y="272.4" width="48" height="113" rx="5" transform="rotate(-11 604.7 272.4)" fill="#293234"/>
    <rect x="618.5" y="281.2" width="20" height="8" rx="3" transform="rotate(-11 618.5 281.2)" fill="#F5F5F5"/>
    <path d="M599.6 330.1c15.4 9.8 26.5 20 33.3 30.5" stroke="#B9795E" stroke-width="20" stroke-linecap="round"/>
    <path d="M249.6 320.2c16.9 9.2 27.8 20.2 32.8 33.1" stroke="#F49A74" stroke-width="19" stroke-linecap="round"/>
    <path d="M180.1 333.7c-16.4-13.3-26.8-27.4-31.2-42.1" stroke="#F49A74" stroke-width="20" stroke-linecap="round"/>
  </g>
</svg>
